<?xml version="1.0" encoding="UTF-8" standalone="no"?>
<svg
   xmlns:dc="http://purl.org/dc/elements/1.1/"
   xmlns:cc="http://creativecommons.org/ns#"
   xmlns:rdf="http://www.w3.org/1999/02/22-rdf-syntax-ns#"
   xmlns:svg="http://www.w3.org/2000/svg"
   xmlns="http://www.w3.org/2000/svg"
   xmlns:sodipodi="http://sodipodi.sourceforge.net/DTD/sodipodi-0.dtd"
   xmlns:inkscape="http://www.inkscape.org/namespaces/inkscape"
   viewBox="0 0 793.7007874015749 1122.5196850393702"
   width="793.7007874015749"
   height="1122.5196850393702"
   version="1.1"
   id="svg58"
   sodipodi:docname="cover_plexi_neopixel.svg"
   inkscape:version="1.0.2-2 (e86c870879, 2021-01-15)">
  <metadata
     id="metadata62">
    <rdf:RDF>
      <cc:Work
         rdf:about="">
        <dc:format>image/svg+xml</dc:format>
        <dc:type
           rdf:resource="http://purl.org/dc/dcmitype/StillImage" />
        <dc:title></dc:title>
      </cc:Work>
    </rdf:RDF>
  </metadata>
  <sodipodi:namedview
     pagecolor="#ffffff"
     bordercolor="#666666"
     borderopacity="1"
     objecttolerance="10"
     gridtolerance="10"
     guidetolerance="10"
     inkscape:pageopacity="0"
     inkscape:pageshadow="2"
     inkscape:window-width="3440"
     inkscape:window-height="1387"
     id="namedview60"
     showgrid="false"
     inkscape:zoom="3.5919193"
     inkscape:cx="165.87425"
     inkscape:cy="634.14317"
     inkscape:window-x="-8"
     inkscape:window-y="-8"
     inkscape:window-maximized="1"
     inkscape:current-layer="g54" />
  <defs
     id="defs14">
    <marker
       id="DistanceX"
       orient="auto"
       refX="0.0"
       refY="0.0"
       style="overflow:visible">
      <path
         d="M 3,-3 L -3,3 M 0,-5 L  0,5"
         style="stroke:#000000; stroke-width:0.5"
         id="path2" />
    </marker>
    <pattern
       id="Hatch"
       patternUnits="userSpaceOnUse"
       width="8"
       height="8"
       x="0"
       y="0">
      <path
         d="M8 4 l-4,4"
         stroke="#000000"
         stroke-width="0.25"
         linecap="square"
         id="path5" />
      <path
         d="M6 2 l-4,4"
         stroke="#000000"
         stroke-width="0.25"
         linecap="square"
         id="path7" />
      <path
         d="M4 0 l-4,4"
         stroke="#000000"
         stroke-width="0.25"
         linecap="square"
         id="path9" />
    </pattern>
    <symbol
       id="*MODEL_SPACE" />
    <symbol
       id="*PAPER_SPACE" />
  </defs>
  <g
     inkscape:groupmode="layer"
     inkscape:label="0"
     id="g54">
    <path
       d="m 286.56883,691.4204 a 5.66816,5.66816 0 1 0 -11.33632,0 5.66816,5.66816 0 1 0 11.33632,0 z"
       style="fill:none;stroke:#000000;stroke-width:0.0393622"
       id="path18" />
    <path
       d="m 286.56883,525.1544 a 5.66816,5.66816 0 1 0 -11.33632,0 5.66816,5.66816 0 1 0 11.33632,0 z"
       style="fill:none;stroke:#000000;stroke-width:0.0393622"
       id="path20" />
    <path
       d="m 120.30292,525.1544 a 5.668156,5.668156 0 1 0 -11.33631,0 5.668156,5.668156 0 1 0 11.33631,0 z"
       style="fill:none;stroke:#000000;stroke-width:0.0393622"
       id="path22" />
    <path
       d="m 120.30292,691.4204 a 5.668156,5.668156 0 1 0 -11.33631,0 5.668156,5.668156 0 1 0 11.33631,0 z"
       style="fill:none;stroke:#000000;stroke-width:0.0393622"
       id="path24" />
    <path
       d="M 99.519681,521.3756 V 695.199 a 11.336334,-11.336334 0 0 0 10.348279,11.2933 l 0.98803,0.043 h 173.82345 a 11.336277,-11.336277 0 0 0 11.29323,-10.3481 l 0.0431,-0.9882 V 521.3756 a 11.336245,-11.336245 0 0 0 -10.34816,-11.2932 l -0.98815,-0.043 H 110.85599 a 11.336303,-11.336303 0 0 0 -11.336309,11.3363 z"
       style="fill:none;stroke:#000000;stroke-width:0.0393622"
       id="path52" />
  </g>
  <desc
     id="desc56">cover_plexi_neopixel.dxf - scale = 25.400000, origin = (0.000000, 0.000000), method = file</desc>
</svg>
